<svg width="640" height="640" viewBox="0 0 640 640" fill="none" xmlns="http://www.w3.org/2000/svg">
<path fill-rule="evenodd" clip-rule="evenodd" d="M20 320C20 240.378 51.3373 165.188 108.26 108.263C165.183 51.3383 240.37 20 319.99 20H334.017V124.031L198.428 256.061V383.966L334.017 515.996V620H319.99C240.37 620 165.183 588.66 108.26 531.736C51.3373 474.811 20 399.621 20 320ZM613.071 255.666L613.155 256.088V256.116C617.7 277.045 620 298.563 620 320.027C620 341.49 617.7 363.008 613.155 383.937L613.071 384.358C601.793 429.641 581.902 466.814 567.202 490.016L566.894 490.493C560.44 499.863 553.371 508.925 545.908 517.454L536.174 528.593L394.945 391.036V248.99L536.174 111.432L545.908 122.571C553.342 131.099 560.413 140.161 566.894 149.532L567.202 150.009C581.902 173.211 601.793 210.385 613.071 255.666Z" fill="#87CA7A"/>
</svg>
